# xmcd
#
# Track frame offsets:
#	150
#	15377
#	26437
#	43325
#	57590
#	67952
#	85142
#	104030
#	121190
#	138890
#	149707
#	185702
#	201297
#	231980
#	249042
#
# Disc length: 3524 seconds
#
# Revision: 1
# Processed by: cddbd v1.5.1PL0 Copyright (c) Steve Scherf et al.
# Submitted via: CDex 1.50Beta5
#
DISCID=d80dc20f
DTITLE=鈴木理恵子 - 夏の夜の夢
DYEAR=1999
DGENRE=
TTITLE0=リベルタンゴ
TTITLE1=美しい夕暮れ
TTITLE2=カンタービレ・ニ長調
TTITLE3=夢のあとに
TTITLE4=マドリガル
TTITLE5=シンドラーのリスト
TTITLE6=チャールダーシュ
TTITLE7=子守歌
TTITLE8=夜想曲第16番変ホ長調
TTITLE9=夕べの歌
TTITLE10=アディオスノニーノ
TTITLE11=鮫
TTITLE12=ブエノスアイレスの冬
TTITLE13=愛の小道
TTITLE14=トロイメライ
EXTD=
EXTT0=
EXTT1=
EXTT2=
EXTT3=
EXTT4=
EXTT5=
EXTT6=
EXTT7=
EXTT8=
EXTT9=
EXTT10=
EXTT11=
EXTT12=
EXTT13=
EXTT14=
PLAYORDER=
